<svg xmlns="http://www.w3.org/2000/svg" xmlns:xlink="http://www.w3.org/1999/xlink" version="1.1" x="0px" y="0px" viewBox="0 0 100 100"  xml:space="preserve"><path d="M12,73.4l0,12.1c0,1.4,1.1,2.5,2.5,2.5l71,0c1.4,0,2.5-1.1,2.5-2.5l0-12.1l0-12.1l0-12.1c0,0,0,0,0,0c0-0.2,0-0.3,0-0.4  c0,0,0-0.1,0-0.1c0-0.1-0.1-0.2-0.1-0.3c0-0.1,0-0.1-0.1-0.1c0-0.1-0.1-0.2-0.1-0.2c0,0-0.1-0.1-0.1-0.1c-0.1-0.1-0.1-0.2-0.2-0.2  c0,0-0.1-0.1-0.1-0.1c-0.1-0.1-0.2-0.2-0.3-0.2c0,0,0,0-0.1,0c0,0,0,0,0,0l-13.2-8.8c1.3-2.1,2.1-4.5,2.1-7.1  c0-7.9-6.8-9.2-11.1-9.4c0-1.7,0.3-4,1.9-5.2c1.1-0.8,1.3-2.4,0.4-3.5c-0.8-1.1-2.4-1.3-3.5-0.4c-3.2,2.5-3.8,6.4-3.8,9.1  c-4.4,0.3-10.7,1.8-10.7,9.4c0,0.8,0.1,1.5,0.2,2.3L13.6,46.8c0,0,0,0,0,0c-0.1,0-0.1,0.1-0.2,0.1c-0.1,0-0.2,0.1-0.2,0.1  c-0.1,0-0.1,0.1-0.2,0.1c-0.1,0.1-0.1,0.1-0.2,0.2c0,0-0.1,0.1-0.1,0.1c-0.1,0.1-0.1,0.1-0.2,0.2c0,0.1-0.1,0.1-0.1,0.2  c0,0.1-0.1,0.2-0.1,0.2c0,0.1-0.1,0.1-0.1,0.2c0,0.1-0.1,0.2-0.1,0.3c0,0.1,0,0.1,0,0.2c0,0.1,0,0.3,0,0.4c0,0,0,0,0,0v0  c0,0,0,0,0,0l0,12.1L12,73.4z M83,83L17,83l0-7.2l66.1,0L83,83z M83,70.9l-66.1,0l0-7.2l66.1,0L83,70.9z M62.3,26.5  c7.8,0,8.5,2,8.5,4.5c0,4.7-3.8,8.5-8.5,8.5s-8.5-3.8-8.5-8.5C53.8,28.5,54.5,26.6,62.3,26.5z M50.8,38c2.4,3.9,6.6,6.5,11.5,6.5  c3,0,5.7-1,7.9-2.6l7.1,4.7l-49.3,0L50.8,38z M83,51.5l0,7.2l-66.1,0l0-7.2L83,51.5z"></path></svg>