<svg xmlns="http://www.w3.org/2000/svg" viewBox="0 0 100 100"><defs><linearGradient id="ab5d0692a-88af-4d58-8bd9-0cfa42cbb6b8" x1="78.09" y1="64.14" x2="24.88" y2="10.93" gradientUnits="userSpaceOnUse"><stop offset="0" stop-color="#e50040"/><stop offset="1" stop-color="#ebf855"/></linearGradient></defs><g fill-rule="evenodd"><path d="M65.43 2.43A49.84 49.84 0 0 0 50 0c-1.35 0-2.69.05-4 .16A50 50 0 0 0 50 100a50.79 50.79 0 0 0 10.31-1.06 50 50 0 0 0 5.12-96.51zM50 79.86a29.86 29.86 0 1 1 0-59.72h1.26A29.88 29.88 0 0 1 79 42.76a30.28 30.28 0 0 1 .86 7.24A29.86 29.86 0 0 1 50 79.86z" fill="#e9a316" opacity=".8"/><path d="M79 42.76c-9-8.94-22.49-10.09-26.49-18.16a12.58 12.58 0 0 1-1.25-4.43C50.51 12.18 57 3.6 65.43 2.43A49.84 49.84 0 0 0 50 0c-1.35 0-2.69.05-4 .16a49.91 49.91 0 0 0-10.37 1.93 22.16 22.16 0 0 0-10.12 30.82l.26.45c5.81 9.9 33.46 11 40 22.16 3.79 6.5-1.09 15.79-6.66 19.8-4.11 2.94-9.28 4.08-14.89 4A29.9 29.9 0 0 0 79 42.76z" fill="url(#ab5d0692a-88af-4d58-8bd9-0cfa42cbb6b8)"/><path d="M44.19 79.3C29 79 10.55 69.67 1.69 62.92A50 50 0 0 0 50 100a50.79 50.79 0 0 0 10.31-1.06c20.87-4.6 31.82-26.62 24.89-46.24a26.09 26.09 0 0 0-6.2-9.94 30.22 30.22 0 0 1 .86 7.24 29.91 29.91 0 0 1-35.67 29.3" fill="#e50040" opacity=".2"/><path d="M20.14 50a29.75 29.75 0 0 1 5.37-17.09A22.16 22.16 0 0 1 35.63 2.09 50.06 50.06 0 0 0 1.69 62.92C10.55 69.67 29 79 44.19 79.3a29.88 29.88 0 0 1-24-29.3" fill="#e50040" opacity=".8"/></g></svg>